<svg xmlns="http://www.w3.org/2000/svg" width="21" height="20"><path fill="#FFF" fill-rule="evenodd" d="M8.843 1.33L9.86.321c.216-.214.479-.321.787-.321.309 0 .571.107.787.321l8.982 8.9c.216.213.324.473.324.779 0 .306-.108.566-.324.78l-8.982 8.899a1.077 1.077 0 0 1-.787.321c-.308 0-.57-.107-.787-.321l-1.018-1.01c-.247-.213-.363-.473-.348-.78.016-.305.132-.565.348-.779l5.555-5.275H1.111c-.309 0-.57-.107-.787-.321a1.057 1.057 0 0 1-.324-.78V9.266c0-.306.108-.566.324-.78.216-.214.478-.32.787-.32h13.287L8.843 2.89a1.142 1.142 0 0 1-.348-.78c-.015-.306.1-.566.348-.78z"/></svg>