<svg xmlns="http://www.w3.org/2000/svg" width="70" height="60" ><g fill="#2E95A4" fill-rule="evenodd"><path fill-rule="nonzero" d="M56.203 25.453l-4.125-.281a6.245 6.245 0 0 0-.234-.89c-.563-2.11-1.453-4.079-2.532-5.86 0 0 1.266-1.36 2.813-3.047 1.547-1.688 1.172-4.594-.89-6.422l-2.25-2.062c-1.079-.985-2.438-1.5-3.704-1.5-1.125 0-2.156.375-2.906 1.218l-2.86 3.094c-2.156-1.031-4.5-1.687-6.937-2.015 0 0-.281-1.875-.656-4.172C31.547 1.406 29.532 0 27.187 0c-.328 0-.609.047-.937.094l-3.094.469c-2.765.421-4.687 2.671-4.312 5.015l.656 4.219a23.644 23.644 0 0 0-5.86 4.031s-1.687-.937-3.75-2.11c-.562-.327-1.218-.468-1.874-.468-1.641 0-3.375 1.031-4.407 2.766l-1.546 2.671c-1.407 2.438-.844 5.297 1.218 6.47l3.75 2.109a21.282 21.282 0 0 0-.515 7.125s-1.782.703-3.985 1.593c-2.203.891-3.14 3.703-2.11 6.282l1.126 2.812C2.39 45.141 4.219 46.406 6 46.406c.469 0 .938-.093 1.36-.281l3.937-1.594c1.5 1.922 3.328 3.563 5.297 4.875 0 0-.563 1.782-1.219 4.032-.656 2.203.938 4.64 3.61 5.437l2.953.89c.562.188 1.171.235 1.687.235 2.016 0 3.797-1.078 4.313-2.766l1.218-3.984h.188a23.69 23.69 0 0 0 6.187-.844l.985-.281s1.03 1.5 2.343 3.375c.703 1.031 1.922 1.547 3.282 1.547 1.078 0 2.203-.328 3.234-1.031l2.578-1.782c2.297-1.593 3.094-4.359 1.828-6.234l-2.343-3.328c1.593-1.922 2.812-4.125 3.703-6.469 0 0 1.828.14 4.125.281h.234c2.156 0 4.031-2.062 4.266-4.78l.234-3c.188-2.767-1.5-5.11-3.797-5.25zm1.828 5.156l-.234 3c-.094 1.641-1.172 2.953-2.297 2.953h-.094l-4.125-.28-1.453-.094-.516 1.359a20.55 20.55 0 0 1-3.374 5.906L45 44.578l.844 1.219 2.343 3.375c.282.422.282.937.235 1.266-.14.796-.75 1.64-1.547 2.203l-2.578 1.78a3.808 3.808 0 0 1-2.156.704c-.75 0-1.36-.281-1.688-.75L38.11 51l-.797-1.172-1.359.422c-.234.094-.562.188-.89.281-1.829.516-3.75.75-5.672.75h-1.594l-.422 1.407-1.219 3.984c-.234.844-1.265 1.406-2.484 1.406-.375 0-.797-.047-1.172-.187L19.547 57c-.938-.281-1.735-.844-2.11-1.594-.187-.328-.375-.843-.187-1.406l1.219-4.031.422-1.407-1.22-.796a20.085 20.085 0 0 1-4.874-4.453l-.844-1.126-1.36.516-3.937 1.594c-.187.094-.422.14-.656.14-1.078 0-2.156-.89-2.672-2.156L2.203 39.47c-.375-.89-.375-1.828-.047-2.625.14-.375.469-.89 1.078-1.125l3.985-1.594 1.36-.516-.142-1.453c-.187-2.203-.046-4.406.47-6.515l.327-1.453-1.265-.704-3.75-2.109c-.516-.281-.75-.797-.844-1.219-.234-.797-.094-1.734.375-2.531l1.547-2.672c.61-1.078 1.687-1.781 2.719-1.781.328 0 .656.094.937.234l3.75 2.11 1.266.703L15 15.234c1.594-1.5 3.375-2.765 5.39-3.703l1.313-.61-.234-1.452-.657-4.219c-.093-.75.282-1.36.563-1.64.516-.61 1.313-.985 2.156-1.126l3.094-.468c.234-.047.422-.047.656-.047 1.407 0 2.625.797 2.766 1.828l.656 4.172.235 1.453 1.453.187c2.203.282 4.359.891 6.375 1.829l1.265.609.938-1.031 2.86-3.094c.468-.469 1.077-.563 1.5-.563.843 0 1.687.375 2.39.985l2.25 2.062c.703.656 1.172 1.547 1.218 2.344 0 .375-.046.89-.421 1.313l-2.813 3.046-.984 1.078.797 1.266c1.03 1.688 1.828 3.469 2.343 5.39.047.235.141.516.188.845l.328 1.406 1.453.093 4.125.282c.563.047.984.375 1.219.656.422.516.703 1.5.61 2.484z"/><path fill-rule="nonzero" d="M30 14.39c-8.578 0-15.516 6.985-15.516 15.61S21.422 45.61 30 45.61 45.516 38.624 45.516 30 38.578 14.39 30 14.39zm0 29.25c-7.5 0-13.594-6.14-13.594-13.64 0-7.547 6.094-13.64 13.594-13.64 7.5 0 13.594 6.14 13.594 13.64 0 7.547-6.094 13.64-13.594 13.64z"/><path d="M33.75 35.203h-7.5a.47.47 0 0 0-.469.469c0 .281.188.422.469.422h7.5c.281 0 .469-.188.469-.422 0-.281-.188-.469-.469-.469zM33.75 32.344h-7.5c-.281 0-.469.187-.469.468 0 .282.188.47.469.47h7.5c.281 0 .469-.188.469-.47a.47.47 0 0 0-.469-.468zM33.75 29.531h-7.5c-.281 0-.469.188-.469.469 0 .281.188.469.469.469h7.5c.281 0 .469-.188.469-.469 0-.281-.188-.469-.469-.469zM25.781 27.188c0 .28.188.468.469.468h7.5a.47.47 0 0 0 .469-.468c0-.282-.188-.47-.469-.47h-7.5c-.281 0-.469.188-.469.47zM26.25 24.844h4.172a.47.47 0 0 0 .469-.469c0-.281-.188-.469-.47-.469H26.25c-.281 0-.469.188-.469.469a.47.47 0 0 0 .469.469z"/><path fill-rule="nonzero" d="M23.438 20.156c-1.032 0-1.875.703-1.875 1.735v16.64c0 1.032.843 1.782 1.875 1.782h12.656c1.031 0 1.875-.704 1.875-1.782V24.844l-4.782-4.688h-9.75zm12.656 5.625v12.703H23.437V22.031h8.907v1.828c0 1.078.703 1.922 1.781 1.922h1.969z"/></g></svg>