<svg xmlns="http://www.w3.org/2000/svg" width="80" height="60"><g fill="#2E95A4" fill-rule="evenodd"><path d="M30.097 44.613h-3.194c0-6.58-5.226-11.903-11.71-11.903a11.688 11.688 0 0 0-11.71 11.71H.29c0-8.226 6.678-14.904 14.904-14.904 8.225 0 14.903 6.678 14.903 14.903v.194z"/><path fill-rule="nonzero" d="M15.194 29.71c-4.065 0-7.259-3.29-7.259-7.258s3.29-7.258 7.259-7.258c3.967 0 7.258 3.29 7.258 7.258 0 3.967-3.194 7.258-7.258 7.258zm0-11.42c-2.226 0-4.065 1.839-4.065 4.065 0 2.226 1.839 4.064 4.065 4.064 2.225 0 4.064-1.838 4.064-4.064.097-2.226-1.742-4.065-4.064-4.065z"/><path d="M78.774 44.613h-3.193c0-6.58-5.226-11.903-11.71-11.903a11.688 11.688 0 0 0-11.71 11.71h-3.193c0-8.226 6.677-14.904 14.903-14.904s14.903 6.678 14.903 14.903v.194z"/><path fill-rule="nonzero" d="M63.871 29.71c-4.065 0-7.258-3.29-7.258-7.258s3.29-7.258 7.258-7.258c4.064 0 7.258 3.29 7.258 7.258 0 3.967-3.194 7.258-7.258 7.258zm0-11.42c-2.226 0-4.065 1.839-4.065 4.065 0 2.226 1.84 4.064 4.065 4.064 2.226 0 4.064-1.838 4.064-4.064.097-2.226-1.741-4.065-4.064-4.065z"/><g><path d="M18.58 13.452l-2.419-2.033C21.774 4.645 30 .774 38.71.774c7.645 0 14.806 2.903 20.322 8.13l-2.226 2.322C51.871 6.58 45.484 3.968 38.71 3.968c-7.742 0-15.097 3.484-20.13 9.484z"/><path d="M49.549 9.194l7.645.29.29-7.645 3.097 3.29-.194 7.742-7.645-.29z"/></g><g><path d="M39.097 59.516c-7.645 0-14.807-2.903-20.323-8.129L21 49.065c4.935 4.645 11.323 7.258 18.097 7.258 7.742 0 15.097-3.388 20.032-9.388l2.42 2.033a29.1 29.1 0 0 1-22.452 10.548z"/><path d="M28.162 51.097l-7.645-.29-.194 7.645-3.194-3.29.29-7.645 7.646.193z"/></g></g></svg>