<svg xmlns="http://www.w3.org/2000/svg" width="80" height="60"><g fill="#2E95A4" fill-rule="nonzero"><path d="M1 60h31a1 1 0 0 0 .707-1.707l-31-31A1 1 0 0 0 0 28v31a1 1 0 0 0 1 1zm1-29.586L29.586 58H2V30.414z"/><path d="M17.707 52.293l-10-10A1 1 0 0 0 6 43v10a1 1 0 0 0 1 1h10a1 1 0 0 0 .707-1.707zM8 52v-6.586L14.586 52H8zM58.878 8.536a3.828 3.828 0 0 0-5.414-5.414l-1.5 1.5A4.991 4.991 0 0 0 47 0H13a5.006 5.006 0 0 0-5 5v26h2V5a3 3 0 0 1 3-3h34a3 3 0 0 1 3 3v1.586L40.586 16h-7.35A10.995 10.995 0 1 0 22 30.95V35a1 1 0 0 0 1 1h22a1 1 0 0 0 1-1V21.414l4-4V38H27a1 1 0 0 0-1 1v8a1 1 0 0 0 1 1h23v1a3 3 0 0 1-3 3H31v2h16a5.006 5.006 0 0 0 5-5v-1h7a1 1 0 0 0 1-1v-8a1 1 0 0 0-1-1h-7V15.414l6.878-6.878zm-4-4a1.829 1.829 0 1 1 2.586 2.586L57 7.586 54.414 5l.464-.464zM32 20a9.01 9.01 0 0 1-8 8.941V18h7.768c.152.656.23 1.327.232 2zm-10-3v11.941A9 9 0 1 1 31.05 16H23a1 1 0 0 0-1 1zm22 17H24v-3.05A10.955 10.955 0 0 0 33.809 18h4.777l-2.293 2.293a.991.991 0 0 0-.273.511l-1 5a1 1 0 0 0 1.18 1.176l5-1a.991.991 0 0 0 .511-.273L44 23.414V34zm-6.386-10.972l1.358 1.358-1.7.339.342-1.697zM54 40v2h2v-2h2v6H28v-6h2v2h2v-2h2v2h2v-2h2v2h2v-2h2v2h2v-2h2v2h2v-2h2v2h2v-2h2zM41 23.586L38.414 21 53 6.414 55.586 9 41 23.586z"/></g></svg>