<svg xmlns="http://www.w3.org/2000/svg" width="100" height="100"><g fill="none" fill-rule="evenodd"><circle cx="50" cy="50" r="50" fill="#FFF" fill-rule="nonzero"/><path fill="#000" d="M71.33 30c1.4 0 2.57.49 3.55 1.46A4.82 4.82 0 0 1 76.33 35v30c0 1.39-.48 2.57-1.45 3.54A4.82 4.82 0 0 1 71.33 70H28a4.82 4.82 0 0 1-3.54-1.46A4.82 4.82 0 0 1 23 65V35c0-1.39.49-2.57 1.46-3.54A4.82 4.82 0 0 1 28 30h43.33zm0 5H28v4.27c2.43 1.95 7.12 5.63 14.06 11.04l.94.84a25.46 25.46 0 0 0 3.33 2.5c1.32.9 2.43 1.35 3.34 1.35.9 0 2.01-.45 3.33-1.35.83-.49 1.94-1.32 3.33-2.5l.94-.84a606.84 606.84 0 0 0 14.06-11.04V35zM28 65h43.33V45.62l-12.08 9.59a30.2 30.2 0 0 1-4.27 3.12A10.5 10.5 0 0 1 49.67 60c-1.67 0-3.48-.56-5.42-1.67a41.16 41.16 0 0 1-4.27-3.12L28 45.62V65z"/></g></svg>