<svg xmlns="http://www.w3.org/2000/svg" width="100" height="100"><g fill="none" fill-rule="evenodd"><circle cx="50" cy="50" r="50" fill="#FFF" fill-rule="nonzero"/><path fill="#000" d="M41.2 65.2c0 .3-.2.4-.6.5-.4 0-.6-.1-.6-.4 0-.3.2-.4.5-.4l.5.1.2.2zm-3.2-.4c0-.3.2-.4.6-.3.3.1.5.3.4.5 0 .1 0 .2-.2.3h-.4l-.4-.2v-.3zm4.5-.2c.3 0 .5.1.6.3 0 .2-.1.4-.5.5h-.4L42 65c0-.2.2-.3.5-.4zM49.3 25a26.5 26.5 0 0 1 22.5 12.3c2.3 4 3.5 8.2 3.5 13a25.9 25.9 0 0 1-17.4 24.6c-.5.2-1 .1-1.3-.2-.3-.3-.4-.6-.4-1V65c0-2.2-.6-3.8-1.8-4.7 2.5-.3 4.4-.7 5.7-1 2-.8 3.4-1.8 4.4-3.2 1.2-1.8 1.8-4.2 1.8-7.3 0-1.3-.3-2.5-.7-3.4a12 12 0 0 0-2-2.6c.3-.7.4-1.5.5-2.5 0-1.5-.2-3-.7-4.5-.7-.3-1.7-.1-3 .4l-2.8 1.4-1.3 1a23.4 23.4 0 0 0-13 0l-1.4-1-3-1.4c-1.3-.5-2.2-.7-2.8-.4-.6 1.5-.9 3-.7 4.5 0 1 .1 1.8.4 2.4-.8 1-1.4 2-1.8 2.8-.4.9-.6 2-.6 3.3 0 3 .6 5.5 1.7 7.2 1 1.5 2.4 2.5 4.3 3.2 1.2.4 3.1.8 5.6 1-1 .9-1.5 2-1.7 3.6-1.1.5-2.3.7-3.4.6a5 5 0 0 1-4.1-2.8c-.4-.8-1-1.4-1.7-1.9l-1.5-.7h-.7c-.8 0-1.2 0-1.2.3 0 .2 0 .5.4.7l.5.5c.5.2 1 .7 1.5 1.3.4.5.8 1 1 1.7l.4.8c.4 1 1 1.8 2 2.4.8.4 1.8.8 3 .9l2.6-.1 1.1-.1.1 6.3c0 .4-.1.7-.4 1-.3.3-.8.4-1.3.2A25.7 25.7 0 0 1 24 50.2c0-4.7 1.1-9 3.3-12.8a24 24 0 0 1 9.1-9c3.9-2.3 8.2-3.4 13-3.4zM34 60.7c.2-.2.3-.1.5 0 .3.3.3.4.1.6l-.5-.1c-.2-.2-.2-.4 0-.5zm-1.1-.9h.5c.2 0 .3.2.2.4 0 .2-.2.2-.5 0-.2 0-.3-.2-.2-.4zm3.4 3.7l.3-.1.4.2.2.4v.3c-.3.2-.5.2-.8-.1l-.2-.4.1-.3zM35.1 62h.3c.1 0 .2 0 .3.2.2.3.2.5 0 .6h-.3l-.3-.2c-.2-.3-.2-.5 0-.6z"/></g></svg>