<svg xmlns="http://www.w3.org/2000/svg"><path fill="#FFF" fill-rule="evenodd" width="100%" height="100%" d="M34.016 5.867c.437.146.729.392.875.739.145.346.145.692 0 1.039-.146.346-.438.592-.875.738L18.758 13.03a3.726 3.726 0 0 1-2.516 0L5.523 9.75c-.692.51-1.075 1.185-1.148 2.023.583.365.875.848.875 1.45 0 .601-.255 1.084-.766 1.449l1.422 6.289a.927.927 0 0 1-.191.71.806.806 0 0 1-.684.329H1.97a.806.806 0 0 1-.684-.328.927.927 0 0 1-.191-.711l1.422-6.29c-.51-.364-.766-.856-.766-1.476s.292-1.093.875-1.422c.036-.947.365-1.804.984-2.57l-2.625-.82C.547 8.237.255 7.99.11 7.645a1.289 1.289 0 0 1 0-1.04c.146-.346.438-.592.875-.738l15.258-4.703a4.228 4.228 0 0 1 2.516 0l15.258 4.703zm-14.711 8.86l7.93-2.407L28 18.5c0 .62-.474 1.203-1.422 1.75-.948.547-2.224.975-3.828 1.285-1.604.31-3.354.465-5.25.465s-3.646-.155-5.25-.465c-1.604-.31-2.88-.738-3.828-1.285C7.474 19.703 7 19.12 7 18.5l.766-6.18 7.93 2.407a6.092 6.092 0 0 0 3.609 0z"/></svg>