<svg xmlns="http://www.w3.org/2000/svg" width="100" height="100"><g fill="none" fill-rule="evenodd"><circle cx="50" cy="50" r="50" fill="#FFF" fill-rule="nonzero"/><path fill="#000" d="M36.2 75H25.8V41.6h10.4V75zM31 37c-1.6 0-3-.5-4.2-1.7A5.8 5.8 0 0 1 25 31c0-1.6.6-3 1.8-4.2A5.8 5.8 0 0 1 31 25c1.7 0 3 .6 4.3 1.8A5.8 5.8 0 0 1 37 31c0 1.7-.6 3-1.8 4.3A5.8 5.8 0 0 1 31 37zm44 38H64.6V58.7A18 18 0 0 0 64 53c-.9-2-2.5-3-4.8-3-2.4 0-4.1.9-5 2.7-.8 1.3-1.2 3.3-1.2 5.9V75H42.7V41.6h10v4.6a9 9 0 0 1 3.7-3.7 11 11 0 0 1 6.2-1.8c4.8 0 8.2 1.6 10.2 4.6 1.5 2.5 2.2 6.3 2.2 11.4V75z"/></g></svg>