<svg xmlns="http://www.w3.org/2000/svg" width="237" height="71">
							<g fill="none" fill-rule="evenodd">
								<g
									fill-rule="nonzero"
									stroke="#0B4A85"
									stroke-linecap="round"
									stroke-width="3">
									<path d="M16.774 34.964l12.185-6.382M17.935 34.964l16.246 7.543M16.774 34.964v24.95M52.709 34.964l-12.185-6.382M51.549 34.964l-16.247 7.543M52.709 34.964v24.95M2.156 53.058l8.236-3.588M1.557 53.412l3.153 8.412M2.849 53.531l31.622 15.952M66.673 53.531L34.546 69.483M67.365 53.058L59.13 49.47M67.965 53.412l-3.153 8.412M34.76 2v67.305M25.477 11.864L34.761 2M44.044 11.864L34.761 2" />
								</g>
								<path
									fill="#3E3E3E"
									d="M88.641 49.657c0 .12-.004.233-.013.339a.94.94 0 0 1-.063.276.392.392 0 0 1-.159.187.603.603 0 0 1-.318.07c-.258 0-.414-.08-.47-.236a1.968 1.968 0 0 1-.083-.636v-8.876c0-.23.033-.428.097-.594.065-.166.226-.25.484-.25.23 0 .376.084.435.25.06.166.09.354.09.566v8.904zm-1.285-12.844c0-.212.069-.39.207-.532a.7.7 0 0 1 .525-.214.746.746 0 0 1 .76.746.646.646 0 0 1-.22.512.79.79 0 0 1-.54.193.74.74 0 0 1-.525-.193.667.667 0 0 1-.207-.512zm12.263 13.853c-1.272 0-2.346-.126-3.222-.38-.875-.253-1.583-.615-2.122-1.085a4.034 4.034 0 0 1-1.168-1.715c-.24-.672-.36-1.433-.36-2.28 0-.978.136-1.814.408-2.51a4.035 4.035 0 0 1 1.258-1.721c.567-.452 1.282-.784 2.143-.996.862-.212 1.883-.318 3.063-.318 1.18 0 2.2.106 3.062.318.862.212 1.576.544 2.143.996a4.035 4.035 0 0 1 1.258 1.72c.272.697.408 1.533.408 2.51 0 .848-.12 1.609-.36 2.281a4.034 4.034 0 0 1-1.168 1.715c-.539.47-1.246.832-2.122 1.085-.876.254-1.95.38-3.221.38zm0-.815c.839 0 1.562-.063 2.17-.187.609-.124 1.127-.297 1.556-.518.428-.222.774-.48 1.037-.775a3.65 3.65 0 0 0 .622-.96c.152-.346.253-.706.304-1.079.05-.373.076-.749.076-1.127 0-.857-.11-1.585-.332-2.184a3.308 3.308 0 0 0-1.037-1.466c-.47-.378-1.069-.652-1.797-.822-.728-.17-1.595-.256-2.6-.256-1.013 0-1.882.085-2.605.256-.724.17-1.32.444-1.79.822-.47.378-.816.867-1.038 1.466-.22.599-.331 1.327-.331 2.184 0 .378.025.754.076 1.127.05.373.152.733.304 1.078.152.346.36.666.622.961.263.295.608.553 1.037.775.428.22.947.394 1.555.518s1.332.187 2.17.187zm23.02-.318c0 .12-.01.24-.028.36-.019.119-.049.225-.09.317a.612.612 0 0 1-.173.228.424.424 0 0 1-.277.09c-.138 0-.242-.03-.31-.09a.582.582 0 0 1-.16-.228.951.951 0 0 1-.062-.318 9.353 9.353 0 0 1-.007-.36V44.75c0-.719-.053-1.346-.159-1.88-.106-.535-.313-.98-.622-1.334-.309-.355-.737-.62-1.286-.795-.548-.175-1.265-.263-2.15-.263-.543 0-1.12.044-1.728.131a7.81 7.81 0 0 0-1.742.457 5.15 5.15 0 0 0-1.465.864c-.424.36-.72.81-.885 1.355v6.249c0 .12-.005.24-.014.36-.01.119-.032.225-.07.317a.582.582 0 0 1-.158.228.397.397 0 0 1-.27.09.499.499 0 0 1-.31-.09.584.584 0 0 1-.18-.228 1.071 1.071 0 0 1-.083-.318c-.014-.12-.021-.24-.021-.36v-8.958c0-.157.032-.302.097-.436.064-.133.225-.2.483-.2.23 0 .376.062.436.186.06.125.09.275.09.45v1.742c.258-.59.617-1.063 1.078-1.417.461-.355.966-.623 1.514-.802a7.783 7.783 0 0 1 1.673-.353 16.123 16.123 0 0 1 1.555-.083c.996 0 1.832.086 2.51.256.677.17 1.226.454 1.645.85.42.397.719.92.899 1.57.18.65.27 1.453.27 2.412v4.784zm24.166-9.623c0 .562-.083 1.055-.249 1.48a3.606 3.606 0 0 1-1.666 1.894 6.42 6.42 0 0 1-1.223.518 8.544 8.544 0 0 1-1.348.297c-.466.065-.92.106-1.362.125l5.088 5.35c.083.083.14.168.173.256.032.087.053.168.062.242a.441.441 0 0 1-.132.325.458.458 0 0 1-.338.131.877.877 0 0 1-.325-.069.903.903 0 0 1-.339-.263l-5.544-5.917h-5.17v5.198c0 .139-.008.27-.021.394-.014.125-.04.235-.076.332a.575.575 0 0 1-.16.235.397.397 0 0 1-.269.09c-.267 0-.442-.104-.525-.311a1.988 1.988 0 0 1-.125-.74V35.638c0-.138.002-.242.007-.311.005-.07.02-.118.048-.145.028-.028.077-.044.146-.049a5.11 5.11 0 0 1 .31-.007h4.01c.857 0 1.675.01 2.454.028.779.019 1.503.076 2.17.173a9.132 9.132 0 0 1 1.819.442 4.056 4.056 0 0 1 1.39.83c.382.355.677.8.884 1.334.207.535.311 1.194.311 1.977zm-1.175 0c0-.912-.168-1.629-.505-2.15-.336-.52-.836-.908-1.5-1.161-.663-.254-1.484-.41-2.46-.47-.978-.06-2.107-.09-3.388-.09h-3.346v7.327h5.185c.802 0 1.567-.036 2.295-.11.728-.074 1.366-.233 1.915-.477a3.183 3.183 0 0 0 1.313-1.044c.327-.452.491-1.06.491-1.825zm11.019 10.756c-1.272 0-2.346-.126-3.221-.38-.876-.253-1.583-.615-2.123-1.085a4.034 4.034 0 0 1-1.168-1.715c-.24-.672-.36-1.433-.36-2.28 0-.978.137-1.814.409-2.51a4.035 4.035 0 0 1 1.258-1.721c.566-.452 1.28-.784 2.143-.996.861-.212 1.882-.318 3.062-.318s2.2.106 3.062.318c.862.212 1.576.544 2.143.996a4.035 4.035 0 0 1 1.258 1.72c.272.697.408 1.533.408 2.51 0 .848-.12 1.609-.36 2.281a4.034 4.034 0 0 1-1.168 1.715c-.539.47-1.246.832-2.122 1.085-.875.254-1.95.38-3.221.38zm0-.815c.839 0 1.562-.063 2.17-.187.609-.124 1.127-.297 1.556-.518.428-.222.774-.48 1.037-.775a3.65 3.65 0 0 0 .622-.96c.152-.346.253-.706.304-1.079.05-.373.076-.749.076-1.127 0-.857-.11-1.585-.332-2.184a3.308 3.308 0 0 0-1.037-1.466c-.47-.378-1.069-.652-1.797-.822-.728-.17-1.594-.256-2.6-.256-1.013 0-1.882.085-2.605.256-.724.17-1.32.444-1.79.822-.47.378-.816.867-1.037 1.466-.222.599-.332 1.327-.332 2.184 0 .378.025.754.076 1.127.05.373.152.733.304 1.078.152.346.36.666.622.961.263.295.608.553 1.037.775.429.22.947.394 1.555.518.609.124 1.332.187 2.17.187zm22.287-2.212c0-.489-.173-.867-.519-1.134-.345-.267-.802-.463-1.369-.588a11.465 11.465 0 0 0-1.935-.235c-.724-.032-1.461-.06-2.212-.083a42.656 42.656 0 0 1-2.212-.124 8.292 8.292 0 0 1-1.936-.373c-.567-.19-1.023-.461-1.369-.816-.345-.355-.518-.841-.518-1.459 0-.636.173-1.156.518-1.562.346-.406.8-.728 1.362-.968a7.225 7.225 0 0 1 1.908-.497c.71-.093 1.433-.139 2.17-.139 1.208 0 2.333.1 3.374.298 1.042.198 2.01.532 2.904 1.002a.383.383 0 0 1 .186.173c.032.069.053.14.062.214 0 .12-.036.226-.11.318-.074.092-.157.138-.25.138-.054 0-.091-.009-.11-.027a12.034 12.034 0 0 0-2.661-.947c-.99-.236-2.104-.353-3.339-.353-.627 0-1.235.04-1.825.117a6.684 6.684 0 0 0-1.57.388c-.455.18-.822.419-1.098.719-.277.3-.415.675-.415 1.126 0 .461.173.816.518 1.065.346.249.802.43 1.37.546.566.115 1.211.187 1.935.214.723.028 1.46.056 2.212.083.751.028 1.488.076 2.212.145.723.07 1.369.203 1.935.401.567.198 1.024.484 1.37.857.345.374.518.874.518 1.5 0 .563-.175 1.037-.526 1.425-.35.387-.815.698-1.396.933-.58.235-1.251.405-2.012.511-.76.106-1.546.16-2.357.16a40.46 40.46 0 0 1-1.61-.035 15.656 15.656 0 0 1-1.729-.166 9.688 9.688 0 0 1-1.659-.401 4.6 4.6 0 0 1-1.39-.74c-.128-.101-.193-.22-.193-.36 0-.119.035-.223.104-.31a.315.315 0 0 1 .256-.132c.073 0 .129.019.165.056.388.267.805.484 1.252.65.447.165.92.294 1.417.387.498.092 1.018.154 1.562.186.544.033 1.106.049 1.687.049.691 0 1.357-.035 1.998-.104a7.767 7.767 0 0 0 1.7-.36c.493-.17.887-.396 1.182-.677.295-.281.443-.638.443-1.071zm11.572-7.024c-1.097 0-2.035.08-2.814.242-.779.161-1.417.424-1.915.788a3.156 3.156 0 0 0-1.092 1.431c-.23.59-.346 1.309-.346 2.157 0 .848.097 1.567.29 2.157.194.59.51 1.067.948 1.43.438.365 1.014.627 1.728.789.714.161 1.592.242 2.634.242.479 0 .96-.026 1.444-.076.484-.051.961-.134 1.431-.25.47-.114.922-.26 1.355-.435a6.923 6.923 0 0 0 1.217-.636v-5.17a3.594 3.594 0 0 0-.353-.85c-.17-.31-.437-.6-.801-.872-.365-.272-.846-.497-1.445-.677-.6-.18-1.36-.27-2.281-.27zm-.36 13.646c.756 0 1.454-.067 2.095-.2.64-.134 1.193-.34 1.659-.616.465-.276.83-.629 1.092-1.057.263-.429.394-.943.394-1.542v-1.645c-.396.276-.82.51-1.272.698a8.723 8.723 0 0 1-1.39.45c-.474.11-.953.19-1.437.241-.484.051-.952.076-1.404.076-1.05 0-1.986-.08-2.806-.242-.82-.16-1.516-.444-2.088-.85-.571-.405-1.007-.96-1.306-1.666-.3-.705-.45-1.597-.45-2.675 0-1.078.17-1.975.512-2.69a4.252 4.252 0 0 1 1.452-1.713c.626-.43 1.38-.73 2.26-.906.88-.175 1.86-.263 2.938-.263.95 0 1.73.09 2.343.27.613.18 1.106.4 1.48.663.373.263.645.551.815.865.17.313.288.599.353.857 0-.166-.007-.357-.02-.574-.015-.217-.022-.43-.022-.643 0-.313.03-.585.09-.816.06-.23.192-.345.394-.345.139 0 .25.03.332.09.083.06.15.136.2.228.051.092.086.196.104.31.019.116.028.229.028.34v9.94c0 1.456-.55 2.55-1.652 3.284-1.102.732-2.666 1.099-4.694 1.099a14.58 14.58 0 0 1-1.776-.097c-.521-.065-.982-.15-1.383-.256a7.257 7.257 0 0 1-1.072-.366 10.324 10.324 0 0 1-.843-.415 1.028 1.028 0 0 1-.36-.214.517.517 0 0 1-.207-.408c0-.175.063-.3.187-.373.124-.074.214-.111.27-.111.082 0 .18.03.29.09l.38.207c.143.079.302.162.477.25.175.087.369.158.58.213.388.13.858.247 1.41.353.554.106 1.236.159 2.047.159zm18.886-14.268a.35.35 0 0 1 .22.16c.047.077.07.163.07.255 0 .12-.04.23-.117.332-.079.101-.196.152-.353.152a.271.271 0 0 1-.083-.007.49.49 0 0 0-.083-.02 9.853 9.853 0 0 0-1.03-.236 6.444 6.444 0 0 0-1.071-.083c-.544 0-1.063.053-1.556.16-.493.105-.94.266-1.34.483a3.74 3.74 0 0 0-1.045.83c-.295.336-.516.73-.663 1.182v6.36c0 .239-.033.46-.097.663-.065.203-.212.304-.442.304a.529.529 0 0 1-.312-.083.485.485 0 0 1-.172-.221 1.062 1.062 0 0 1-.07-.311 4.42 4.42 0 0 1-.013-.353v-8.848c0-.212.037-.394.11-.546.074-.152.245-.228.512-.228.203 0 .334.073.394.221.06.147.09.332.09.553v1.604c.147-.562.403-1.019.767-1.369.364-.35.77-.62 1.217-.809a5.41 5.41 0 0 1 1.375-.38 9.28 9.28 0 0 1 2.807.02c.184.033.346.068.484.104.138.037.272.074.4.111zm4.327 9.664c0 .12-.005.233-.014.339a.94.94 0 0 1-.062.276.392.392 0 0 1-.159.187.603.603 0 0 1-.318.07c-.258 0-.415-.08-.47-.236a1.968 1.968 0 0 1-.083-.636v-8.876c0-.23.032-.428.097-.594.064-.166.226-.25.484-.25.23 0 .375.084.435.25.06.166.09.354.09.566v8.904zm-1.286-12.844c0-.212.07-.39.208-.532a.7.7 0 0 1 .525-.214.746.746 0 0 1 .76.746.646.646 0 0 1-.22.512.79.79 0 0 1-.54.193.74.74 0 0 1-.525-.193.667.667 0 0 1-.208-.512zm23.089 6.954c0-.636-.053-1.166-.16-1.59-.105-.423-.266-.762-.483-1.016a1.721 1.721 0 0 0-.809-.532 3.846 3.846 0 0 0-1.147-.152c-1.18 0-2.16.24-2.938.719-.78.48-1.427 1.138-1.943 1.977v6.636c0 .166-.016.295-.048.387a.515.515 0 0 1-.131.215.385.385 0 0 1-.173.096.768.768 0 0 1-.173.021c-.065 0-.131-.005-.2-.014a.361.361 0 0 1-.187-.083.508.508 0 0 1-.138-.214 1.188 1.188 0 0 1-.056-.408v-6.636c0-.839-.196-1.498-.587-1.977-.392-.48-1.021-.719-1.888-.719-.654 0-1.262.074-1.824.221a6.213 6.213 0 0 0-1.5.595 4.212 4.212 0 0 0-1.1.878 2.85 2.85 0 0 0-.608 1.057v6.581c0 .323-.053.523-.159.602a.542.542 0 0 1-.325.117c-.064 0-.134-.005-.207-.014a.406.406 0 0 1-.2-.083.523.523 0 0 1-.153-.214 1.066 1.066 0 0 1-.062-.408v-9.194c0-.295.06-.481.18-.56a.694.694 0 0 1 .387-.117c.157 0 .283.039.38.117.097.079.145.265.145.56v1.7c.148-.414.38-.787.698-1.12.318-.33.696-.61 1.134-.836a6.028 6.028 0 0 1 1.472-.518 7.948 7.948 0 0 1 1.715-.18c.7 0 1.265.095 1.693.284.43.189.763.419 1.003.691.24.272.408.555.504.85.097.295.169.549.215.76.166-.285.39-.58.67-.884a4.926 4.926 0 0 1 1.037-.837c.41-.253.892-.46 1.445-.622.553-.161 1.184-.242 1.894-.242 1.272 0 2.212.325 2.82.975.609.65.913 1.694.913 3.131v6.042c0 .166-.019.295-.055.387a.631.631 0 0 1-.132.215.343.343 0 0 1-.173.096.861.861 0 0 1-.18.021c-.073 0-.142-.005-.207-.014a.357.357 0 0 1-.18-.083.461.461 0 0 1-.13-.214 1.346 1.346 0 0 1-.05-.408v-6.042z"
								/>
							</g>
						</svg>