<svg xmlns="http://www.w3.org/2000/svg" width="80" height="60"><g fill="#2E95A4" fill-rule="nonzero"><path d="M60 9.23V3.447C60 1.558 58.442 0 56.52 0H3.48C1.544 0 0 1.543 0 3.446V40.4c0 1.889 1.558 3.446 3.48 3.446h21.328l-1.62 6.478a.61.61 0 0 1-.57.445h-2.992c-.643 0-1.164.535-1.164 1.154 0 .637.507 1.154 1.15 1.154H39.23v-2.308h-1.849a.611.611 0 0 1-.57-.445l-1.62-6.478h4.039v-2.308H3.484c-.65 0-1.176-.522-1.176-1.172v-5.75H39.23v-2.308H2.308V3.48c0-.647.52-1.172 1.176-1.172h53.032c.65 0 1.176.523 1.176 1.172v5.75H60zM27.208 43.847h5.584l1.731 6.923h-9.046l1.73-6.923zM30 40.385a2.308 2.308 0 1 0 0-4.616 2.308 2.308 0 0 0 0 4.616z"/><path d="M45.012 11.538h20.745a3.46 3.46 0 0 1 3.474 3.474v41.514A3.464 3.464 0 0 1 65.757 60H45.012a3.46 3.46 0 0 1-3.474-3.474V15.012a3.464 3.464 0 0 1 3.474-3.474zm-1.166 36.924h23.077V23.077H43.846v25.385zm0-33.47c0-.633.508-1.146 1.15-1.146h20.777c.635 0 1.15.519 1.15 1.145v5.778H43.846v-5.778zm0 41.555c0 .627.515 1.145 1.15 1.145h20.777c.643 0 1.15-.512 1.15-1.145V50.77H43.846v5.778zm12.67-40.393h2.352c.625 0 1.132.535 1.132 1.154 0 .637-.496 1.154-1.132 1.154h-2.352c-.625 0-1.131-.536-1.131-1.154 0-.638.496-1.154 1.131-1.154zm-4.593 2.308a1.154 1.154 0 1 0 0-2.308 1.154 1.154 0 0 0 0 2.308zm3.462 38.076a2.308 2.308 0 1 0 0-4.615 2.308 2.308 0 0 0 0 4.615z"/></g></svg>