<svg xmlns="http://www.w3.org/2000/svg" width="1200" height="389"><defs><linearGradient id="a" x1="0%" y1="50%" y2="50%"><stop offset="0%" stop-color="#00DBFF" stop-opacity=".1"/><stop offset="100%" stop-color="#22BFD6" stop-opacity=".1"/></linearGradient><linearGradient id="b" x1="0%" y1="50%" y2="50%"><stop offset="0%" stop-color="#98C8D0" stop-opacity=".2"/><stop offset="100%" stop-color="#2E95A4" stop-opacity=".3"/></linearGradient></defs><g fill="none" fill-rule="nonzero"><path fill="url(#a)" d="M0 117.7C50.2 55 131.9 16.4 245.1 1.9 415-20 552 152.8 678 189.5c126 36.7 187-85 315-99.3 128-14.5 170.3 67 207 142.7v155.6H0V117.7z"/><path fill="url(#b)" d="M0 149.8c52-54.7 136.7-88.4 254-101 176-19.1 378 126.5 465 151 87 24.6 153-118 299-118s182 68 182 93v213.7H0V149.8z"/><path fill="url(#b)" d="M0 310c42-65.3 121.7-104.3 239-117 176-19 301 92.5 388 117s114-57 266-61.3c152-4.3 262 74.8 307 139.8H0V310z" transform="matrix(-1 0 0 1 1200 0)"/></g></svg>